<svg xmlns="http://www.w3.org/2000/svg" xmlns:xlink="http://www.w3.org/1999/xlink" width="2000" zoomAndPan="magnify" viewBox="0 0 1500 1499.999933" height="2000" preserveAspectRatio="xMidYMid meet" version="1.0"><defs><g/><clipPath id="77e5fa3c61"><path d="M 231.589844 289.820312 L 1261 289.820312 L 1261 1206.355469 L 231.589844 1206.355469 Z M 231.589844 289.820312 " clip-rule="nonzero"/></clipPath><clipPath id="9e8d07ecd6"><path d="M 236.839844 289.820312 L 1255.003906 289.820312 C 1256.394531 289.820312 1257.730469 290.371094 1258.714844 291.355469 C 1259.699219 292.339844 1260.253906 293.675781 1260.253906 295.070312 L 1260.253906 1201.105469 C 1260.253906 1202.5 1259.699219 1203.832031 1258.714844 1204.816406 C 1257.730469 1205.800781 1256.394531 1206.355469 1255.003906 1206.355469 L 236.839844 1206.355469 C 235.445312 1206.355469 234.109375 1205.800781 233.125 1204.816406 C 232.140625 1203.832031 231.589844 1202.5 231.589844 1201.105469 L 231.589844 295.070312 C 231.589844 293.675781 232.140625 292.339844 233.125 291.355469 C 234.109375 290.371094 235.445312 289.820312 236.839844 289.820312 Z M 236.839844 289.820312 " clip-rule="nonzero"/></clipPath><clipPath id="941cca4e13"><path d="M 0.589844 0.820312 L 1029 0.820312 L 1029 917.355469 L 0.589844 917.355469 Z M 0.589844 0.820312 " clip-rule="nonzero"/></clipPath><clipPath id="cb2d40938c"><path d="M 5.839844 0.820312 L 1024.003906 0.820312 C 1025.394531 0.820312 1026.730469 1.371094 1027.714844 2.355469 C 1028.699219 3.339844 1029.253906 4.675781 1029.253906 6.070312 L 1029.253906 912.105469 C 1029.253906 913.5 1028.699219 914.832031 1027.714844 915.816406 C 1026.730469 916.800781 1025.394531 917.355469 1024.003906 917.355469 L 5.839844 917.355469 C 4.445312 917.355469 3.109375 916.800781 2.125 915.816406 C 1.140625 914.832031 0.589844 913.5 0.589844 912.105469 L 0.589844 6.070312 C 0.589844 4.675781 1.140625 3.339844 2.125 2.355469 C 3.109375 1.371094 4.445312 0.820312 5.839844 0.820312 Z M 5.839844 0.820312 " clip-rule="nonzero"/></clipPath><clipPath id="c8a5db7c36"><rect x="0" width="1030" y="0" height="918"/></clipPath><clipPath id="bf14f9a6b0"><rect x="0" width="935" y="0" height="1078"/></clipPath></defs><g clip-path="url(#77e5fa3c61)"><g clip-path="url(#9e8d07ecd6)"><g transform="matrix(1, 0, 0, 1, 231, 289)"><g clip-path="url(#c8a5db7c36)"><g clip-path="url(#941cca4e13)"><g clip-path="url(#cb2d40938c)"><path fill="#ffffff" d="M 0.589844 0.820312 L 1028.113281 0.820312 L 1028.113281 917.355469 L 0.589844 917.355469 Z M 0.589844 0.820312 " fill-opacity="1" fill-rule="nonzero"/></g></g></g></g></g></g><g transform="matrix(1, 0, 0, 1, 284, 211)"><g clip-path="url(#bf14f9a6b0)"><g fill="#ff751f" fill-opacity="1"><g transform="translate(0.652751, 897.606915)"><g><path d="M 403.4375 -702.859375 L 403.4375 -613.203125 C 403.4375 -603.640625 398.65625 -598.859375 389.09375 -598.859375 L 166.75 -598.859375 L 166.75 -418.671875 L 335.296875 -418.671875 C 344.859375 -418.671875 349.640625 -413.890625 349.640625 -404.328125 L 349.640625 -314.671875 C 349.640625 -305.109375 344.859375 -300.328125 335.296875 -300.328125 L 166.75 -300.328125 L 166.75 -14.34375 C 166.75 -4.78125 161.96875 0 152.40625 0 L 59.171875 0 C 49.609375 0 44.828125 -4.78125 44.828125 -14.34375 L 44.828125 -702.859375 C 44.828125 -712.421875 49.609375 -717.203125 59.171875 -717.203125 L 389.09375 -717.203125 C 398.65625 -717.203125 403.4375 -712.421875 403.4375 -702.859375 Z M 403.4375 -702.859375 "/></g></g><g transform="translate(448.911516, 897.606915)"><g><path d="M 302.125 -365.78125 L 444.671875 -21.515625 C 447.660156 -15.535156 447.957031 -10.453125 445.5625 -6.265625 C 443.175781 -2.085938 438.394531 0 431.21875 0 L 338.890625 0 C 328.722656 0 321.847656 -4.179688 318.265625 -12.546875 L 232.203125 -229.515625 L 146.125 -12.546875 C 142.539062 -4.179688 135.671875 0 125.515625 0 L 33.171875 0 C 25.992188 0 21.359375 -2.085938 19.265625 -6.265625 C 17.179688 -10.453125 17.332031 -15.535156 19.71875 -21.515625 L 161.375 -365.78125 L 25.109375 -695.6875 C 22.710938 -702.257812 22.5625 -707.488281 24.65625 -711.375 C 26.75 -715.257812 31.378906 -717.203125 38.546875 -717.203125 L 128.203125 -717.203125 C 138.359375 -717.203125 145.234375 -713.015625 148.828125 -704.640625 L 232.203125 -492.1875 L 315.578125 -704.640625 C 319.160156 -713.015625 326.03125 -717.203125 336.1875 -717.203125 L 425.84375 -717.203125 C 433.019531 -717.203125 437.800781 -715.257812 440.1875 -711.375 C 442.582031 -707.488281 442.285156 -702.257812 439.296875 -695.6875 Z M 302.125 -365.78125 "/></g></g></g></g></g></svg>