<svg xmlns="http://www.w3.org/2000/svg" xmlns:xlink="http://www.w3.org/1999/xlink" width="2000" zoomAndPan="magnify" viewBox="0 0 1500 1499.999933" height="2000" preserveAspectRatio="xMidYMid meet" version="1.0"><defs><g/><clipPath id="37922afdf0"><path d="M 400.882812 344.140625 L 1094 344.140625 L 1094 961.371094 L 400.882812 961.371094 Z M 400.882812 344.140625 " clip-rule="nonzero"/></clipPath><clipPath id="cd1444f00d"><path d="M 406.132812 344.140625 L 1088.371094 344.140625 C 1091.273438 344.140625 1093.621094 346.492188 1093.621094 349.390625 L 1093.621094 956.121094 C 1093.621094 959.019531 1091.273438 961.371094 1088.371094 961.371094 L 406.132812 961.371094 C 403.234375 961.371094 400.882812 959.019531 400.882812 956.121094 L 400.882812 349.390625 C 400.882812 346.492188 403.234375 344.140625 406.132812 344.140625 Z M 406.132812 344.140625 " clip-rule="nonzero"/></clipPath><clipPath id="9c7f2c5e32"><path d="M 0.882812 0.140625 L 693 0.140625 L 693 617.371094 L 0.882812 617.371094 Z M 0.882812 0.140625 " clip-rule="nonzero"/></clipPath><clipPath id="cb2d6fb63e"><path d="M 6.132812 0.140625 L 688.371094 0.140625 C 691.273438 0.140625 693.621094 2.492188 693.621094 5.390625 L 693.621094 612.121094 C 693.621094 615.019531 691.273438 617.371094 688.371094 617.371094 L 6.132812 617.371094 C 3.234375 617.371094 0.882812 615.019531 0.882812 612.121094 L 0.882812 5.390625 C 0.882812 2.492188 3.234375 0.140625 6.132812 0.140625 Z M 6.132812 0.140625 " clip-rule="nonzero"/></clipPath><clipPath id="bcb55abed9"><rect x="0" width="694" y="0" height="618"/></clipPath><clipPath id="1f038f7155"><rect x="0" width="630" y="0" height="726"/></clipPath></defs><g fill="#ff751f" fill-opacity="1"><g transform="translate(396.332871, 1171.850279)"><g><path d="M 84.234375 -144 L 108 -144 C 110.394531 -144 111.59375 -142.800781 111.59375 -140.40625 L 111.59375 -3.59375 C 111.59375 -1.195312 110.394531 0 108 0 L 91.265625 0 C 88.859375 0 87.65625 -1.195312 87.65625 -3.59375 L 87.65625 -84.59375 L 86.40625 -84.59375 L 68.578125 -3.234375 C 68.097656 -1.078125 66.78125 0 64.625 0 L 55.796875 0 C 53.753906 0 52.4375 -1.078125 51.84375 -3.234375 L 34.015625 -84.59375 L 32.765625 -84.59375 L 32.765625 -3.59375 C 32.765625 -1.195312 31.5625 0 29.15625 0 L 12.59375 0 C 10.195312 0 9 -1.195312 9 -3.59375 L 9 -140.40625 C 9 -142.800781 10.195312 -144 12.59375 -144 L 36.359375 -144 C 38.515625 -144 39.832031 -142.921875 40.3125 -140.765625 L 60.296875 -51.125 L 80.28125 -140.765625 C 80.882812 -142.921875 82.203125 -144 84.234375 -144 Z M 84.234375 -144 "/></g></g><g transform="translate(516.93286, 1171.850279)"><g><path d="M 95.765625 0 L 76.6875 0 C 75.125 0 74.160156 -0.835938 73.796875 -2.515625 L 68.765625 -28.796875 L 36.71875 -28.796875 L 31.859375 -2.515625 C 31.492188 -0.835938 30.535156 0 28.984375 0 L 9.71875 0 C 7.5625 0 6.78125 -1.019531 7.375 -3.0625 L 37.265625 -141.484375 C 37.617188 -143.160156 38.632812 -144 40.3125 -144 L 65.34375 -144 C 67.019531 -144 68.039062 -143.160156 68.40625 -141.484375 L 98.28125 -3.0625 C 98.632812 -1.019531 97.796875 0 95.765625 0 Z M 64.265625 -49.6875 L 52.734375 -112.5 L 41.21875 -49.6875 Z M 64.265625 -49.6875 "/></g></g><g transform="translate(622.412851, 1171.850279)"><g><path d="M 64.265625 -144 L 82.984375 -144 C 84.898438 -144 85.859375 -143.039062 85.859375 -141.125 L 85.859375 -2.875 C 85.859375 -0.957031 84.898438 0 82.984375 0 L 65.15625 0 C 63.476562 0 62.398438 -0.78125 61.921875 -2.34375 L 34.375 -79.203125 L 33.484375 -79.203125 L 33.484375 -2.875 C 33.484375 -0.957031 32.519531 0 30.59375 0 L 11.875 0 C 9.957031 0 9 -0.957031 9 -2.875 L 9 -141.125 C 9 -143.039062 9.957031 -144 11.875 -144 L 29.703125 -144 C 31.378906 -144 32.457031 -143.21875 32.9375 -141.65625 L 60.296875 -65.15625 L 61.375 -65.15625 L 61.375 -141.125 C 61.375 -143.039062 62.335938 -144 64.265625 -144 Z M 64.265625 -144 "/></g></g></g><g fill="#ff751f" fill-opacity="1"><g transform="translate(717.272851, 1171.850279)"><g><path d="M 95.765625 0 L 76.6875 0 C 75.125 0 74.160156 -0.835938 73.796875 -2.515625 L 68.765625 -28.796875 L 36.71875 -28.796875 L 31.859375 -2.515625 C 31.492188 -0.835938 30.535156 0 28.984375 0 L 9.71875 0 C 7.5625 0 6.78125 -1.019531 7.375 -3.0625 L 37.265625 -141.484375 C 37.617188 -143.160156 38.632812 -144 40.3125 -144 L 65.34375 -144 C 67.019531 -144 68.039062 -143.160156 68.40625 -141.484375 L 98.28125 -3.0625 C 98.632812 -1.019531 97.796875 0 95.765625 0 Z M 64.265625 -49.6875 L 52.734375 -112.5 L 41.21875 -49.6875 Z M 64.265625 -49.6875 "/></g></g></g><g fill="#ff751f" fill-opacity="1"><g transform="translate(822.752829, 1171.850279)"><g><path d="M 9 -25.921875 L 9 -118.078125 C 9 -126.597656 11.21875 -133.046875 15.65625 -137.421875 C 20.09375 -141.804688 26.515625 -144 34.921875 -144 L 58.6875 -144 C 67.082031 -144 73.5 -141.804688 77.9375 -137.421875 C 82.375 -133.046875 84.59375 -126.597656 84.59375 -118.078125 L 84.59375 -99.359375 C 84.59375 -97.441406 83.632812 -96.484375 81.71875 -96.484375 L 63.71875 -96.484375 C 61.800781 -96.484375 60.84375 -97.441406 60.84375 -99.359375 L 60.84375 -113.046875 C 60.84375 -117.835938 58.441406 -120.234375 53.640625 -120.234375 L 40.6875 -120.234375 C 35.882812 -120.234375 33.484375 -117.835938 33.484375 -113.046875 L 33.484375 -30.953125 C 33.484375 -26.160156 35.882812 -23.765625 40.6875 -23.765625 L 53.640625 -23.765625 C 58.441406 -23.765625 60.84375 -26.160156 60.84375 -30.953125 L 60.84375 -55.078125 L 51.484375 -55.078125 C 49.554688 -55.078125 48.59375 -56.035156 48.59375 -57.953125 L 48.59375 -75.953125 C 48.59375 -77.878906 49.554688 -78.84375 51.484375 -78.84375 L 81.71875 -78.84375 C 83.632812 -78.84375 84.59375 -77.878906 84.59375 -75.953125 L 84.59375 -25.921875 C 84.59375 -17.515625 82.375 -11.09375 77.9375 -6.65625 C 73.5 -2.21875 67.082031 0 58.6875 0 L 34.921875 0 C 26.515625 0 20.09375 -2.21875 15.65625 -6.65625 C 11.21875 -11.09375 9 -17.515625 9 -25.921875 Z M 9 -25.921875 "/></g></g></g><g fill="#ff751f" fill-opacity="1"><g transform="translate(916.352812, 1171.850279)"><g><path d="M 80.8125 -141.125 L 80.8125 -123.125 C 80.8125 -121.082031 79.851562 -120.0625 77.9375 -120.0625 L 32.9375 -120.0625 L 32.9375 -84.0625 L 67.3125 -84.0625 C 69.238281 -84.0625 70.203125 -83.039062 70.203125 -81 L 70.203125 -63.1875 C 70.203125 -61.144531 69.238281 -60.125 67.3125 -60.125 L 32.9375 -60.125 L 32.9375 -23.765625 L 77.9375 -23.765625 C 79.851562 -23.765625 80.8125 -22.800781 80.8125 -20.875 L 80.8125 -2.875 C 80.8125 -0.957031 79.851562 0 77.9375 0 L 11.703125 0 C 9.898438 0 9 -0.957031 9 -2.875 L 9 -141.125 C 9 -143.039062 9.898438 -144 11.703125 -144 L 77.9375 -144 C 79.851562 -144 80.8125 -143.039062 80.8125 -141.125 Z M 80.8125 -141.125 "/></g></g></g><g fill="#ff751f" fill-opacity="1"><g transform="translate(1006.172812, 1171.850279)"><g><path d="M 82.984375 -118.078125 L 82.984375 -74.15625 C 82.984375 -62.15625 78.601562 -54.238281 69.84375 -50.40625 L 82.265625 -3.234375 C 82.859375 -1.078125 82.015625 0 79.734375 0 L 61.015625 0 C 59.335938 0 58.316406 -0.835938 57.953125 -2.515625 L 45.90625 -48.234375 L 33.484375 -48.234375 L 33.484375 -2.875 C 33.484375 -0.957031 32.519531 0 30.59375 0 L 11.875 0 C 9.957031 0 9 -0.957031 9 -2.875 L 9 -141.125 C 9 -143.039062 9.957031 -144 11.875 -144 L 57.0625 -144 C 65.582031 -144 72.03125 -141.804688 76.40625 -137.421875 C 80.789062 -133.046875 82.984375 -126.597656 82.984375 -118.078125 Z M 33.484375 -72 L 51.296875 -72 C 56.097656 -72 58.5 -74.398438 58.5 -79.203125 L 58.5 -113.046875 C 58.5 -117.835938 56.097656 -120.234375 51.296875 -120.234375 L 33.484375 -120.234375 Z M 33.484375 -72 "/></g></g></g><g clip-path="url(#37922afdf0)"><g clip-path="url(#cd1444f00d)"><g transform="matrix(1, 0, 0, 1, 400, 344)"><g clip-path="url(#bcb55abed9)"><g clip-path="url(#9c7f2c5e32)"><g clip-path="url(#cb2d6fb63e)"><path fill="#ff751f" d="M 0.882812 0.140625 L 692.855469 0.140625 L 692.855469 617.371094 L 0.882812 617.371094 Z M 0.882812 0.140625 " fill-opacity="1" fill-rule="nonzero"/></g></g></g></g></g></g><g transform="matrix(1, 0, 0, 1, 428, 291)"><g clip-path="url(#1f038f7155)"><g fill="#ffffff" fill-opacity="1"><g transform="translate(1.543712, 604.542629)"><g><path d="M 271.6875 -473.34375 L 271.6875 -412.96875 C 271.6875 -406.53125 268.46875 -403.3125 262.03125 -403.3125 L 112.296875 -403.3125 L 112.296875 -281.953125 L 225.796875 -281.953125 C 232.242188 -281.953125 235.46875 -278.734375 235.46875 -272.296875 L 235.46875 -211.921875 C 235.46875 -205.472656 232.242188 -202.25 225.796875 -202.25 L 112.296875 -202.25 L 112.296875 -9.65625 C 112.296875 -3.21875 109.078125 0 102.640625 0 L 39.84375 0 C 33.40625 0 30.1875 -3.21875 30.1875 -9.65625 L 30.1875 -473.34375 C 30.1875 -479.78125 33.40625 -483 39.84375 -483 L 262.03125 -483 C 268.46875 -483 271.6875 -479.78125 271.6875 -473.34375 Z M 271.6875 -473.34375 "/></g></g><g transform="translate(303.416865, 604.542629)"><g><path d="M 203.46875 -246.328125 L 299.453125 -14.484375 C 301.472656 -10.460938 301.675781 -7.039062 300.0625 -4.21875 C 298.457031 -1.40625 295.238281 0 290.40625 0 L 228.21875 0 C 221.375 0 216.742188 -2.816406 214.328125 -8.453125 L 156.375 -154.5625 L 98.40625 -8.453125 C 95.988281 -2.816406 91.363281 0 84.53125 0 L 22.34375 0 C 17.507812 0 14.390625 -1.40625 12.984375 -4.21875 C 11.578125 -7.039062 11.675781 -10.460938 13.28125 -14.484375 L 108.671875 -246.328125 L 16.90625 -468.515625 C 15.289062 -472.941406 15.1875 -476.460938 16.59375 -479.078125 C 18.007812 -481.691406 21.132812 -483 25.96875 -483 L 86.34375 -483 C 93.175781 -483 97.800781 -480.179688 100.21875 -474.546875 L 156.375 -331.453125 L 212.515625 -474.546875 C 214.929688 -480.179688 219.5625 -483 226.40625 -483 L 286.78125 -483 C 291.613281 -483 294.832031 -481.691406 296.4375 -479.078125 C 298.050781 -476.460938 297.851562 -472.941406 295.84375 -468.515625 Z M 203.46875 -246.328125 "/></g></g></g></g></g></svg>