<svg xmlns="http://www.w3.org/2000/svg" xmlns:xlink="http://www.w3.org/1999/xlink" width="256" zoomAndPan="magnify" viewBox="0 0 192 42" height="56" preserveAspectRatio="xMidYMid meet" version="1.0"><defs><g/><clipPath id="9a8c61ff87"><path d="M 51 0 L 186 0 L 186 41.023438 L 51 41.023438 Z M 51 0 " clip-rule="nonzero"/></clipPath><clipPath id="ab913c50fa"><rect x="0" width="135" y="0" height="42"/></clipPath><clipPath id="57f2af7de3"><path d="M 5.347656 2.941406 L 44.722656 2.941406 L 44.722656 37.9375 L 5.347656 37.9375 Z M 5.347656 2.941406 " clip-rule="nonzero"/></clipPath><clipPath id="68c178742f"><path d="M 6.082031 2.941406 L 43.894531 2.941406 C 44.089844 2.941406 44.277344 3.015625 44.414062 3.152344 C 44.550781 3.292969 44.628906 3.476562 44.628906 3.671875 L 44.628906 37.203125 C 44.628906 37.398438 44.550781 37.585938 44.414062 37.722656 C 44.277344 37.859375 44.089844 37.9375 43.894531 37.9375 L 6.082031 37.9375 C 5.886719 37.9375 5.699219 37.859375 5.5625 37.722656 C 5.425781 37.585938 5.347656 37.398438 5.347656 37.203125 L 5.347656 3.671875 C 5.347656 3.476562 5.425781 3.292969 5.5625 3.152344 C 5.699219 3.015625 5.886719 2.941406 6.082031 2.941406 Z M 6.082031 2.941406 " clip-rule="nonzero"/></clipPath><clipPath id="db989a01be"><path d="M 0.347656 0.941406 L 39.664062 0.941406 L 39.664062 35.9375 L 0.347656 35.9375 Z M 0.347656 0.941406 " clip-rule="nonzero"/></clipPath><clipPath id="2530300e04"><path d="M 1.082031 0.941406 L 38.894531 0.941406 C 39.089844 0.941406 39.277344 1.015625 39.414062 1.152344 C 39.550781 1.292969 39.628906 1.476562 39.628906 1.671875 L 39.628906 35.203125 C 39.628906 35.398438 39.550781 35.585938 39.414062 35.722656 C 39.277344 35.859375 39.089844 35.9375 38.894531 35.9375 L 1.082031 35.9375 C 0.886719 35.9375 0.699219 35.859375 0.5625 35.722656 C 0.425781 35.585938 0.347656 35.398438 0.347656 35.203125 L 0.347656 1.671875 C 0.347656 1.476562 0.425781 1.292969 0.5625 1.152344 C 0.699219 1.015625 0.886719 0.941406 1.082031 0.941406 Z M 1.082031 0.941406 " clip-rule="nonzero"/></clipPath><clipPath id="ae8aaba669"><rect x="0" width="40" y="0" height="36"/></clipPath><clipPath id="2222a7fe0d"><path d="M 7 0 L 44 0 L 44 41.023438 L 7 41.023438 Z M 7 0 " clip-rule="nonzero"/></clipPath><clipPath id="6a834d84f7"><rect x="0" width="37" y="0" height="42"/></clipPath></defs><g clip-path="url(#9a8c61ff87)"><g transform="matrix(1, 0, 0, 1, 51, 0.000000000000004377)"><g clip-path="url(#ab913c50fa)"><g fill="#000000" fill-opacity="1"><g transform="translate(1.019592, 34.205067)"><g><path d="M 16.015625 -27.390625 L 20.546875 -27.390625 C 20.992188 -27.390625 21.21875 -27.160156 21.21875 -26.703125 L 21.21875 -0.6875 C 21.21875 -0.226562 20.992188 0 20.546875 0 L 17.359375 0 C 16.898438 0 16.671875 -0.226562 16.671875 -0.6875 L 16.671875 -16.09375 L 16.4375 -16.09375 L 13.046875 -0.609375 C 12.953125 -0.203125 12.703125 0 12.296875 0 L 10.609375 0 C 10.222656 0 9.972656 -0.203125 9.859375 -0.609375 L 6.46875 -16.09375 L 6.234375 -16.09375 L 6.234375 -0.6875 C 6.234375 -0.226562 6.003906 0 5.546875 0 L 2.390625 0 C 1.941406 0 1.71875 -0.226562 1.71875 -0.6875 L 1.71875 -26.703125 C 1.71875 -27.160156 1.941406 -27.390625 2.390625 -27.390625 L 6.921875 -27.390625 C 7.328125 -27.390625 7.578125 -27.179688 7.671875 -26.765625 L 11.46875 -9.71875 L 15.265625 -26.765625 C 15.378906 -27.179688 15.628906 -27.390625 16.015625 -27.390625 Z M 16.015625 -27.390625 "/></g></g><g transform="translate(23.9561, 34.205067)"><g><path d="M 18.21875 0 L 14.578125 0 C 14.285156 0 14.101562 -0.160156 14.03125 -0.484375 L 13.078125 -5.484375 L 6.984375 -5.484375 L 6.0625 -0.484375 C 5.988281 -0.160156 5.804688 0 5.515625 0 L 1.84375 0 C 1.4375 0 1.289062 -0.191406 1.40625 -0.578125 L 7.09375 -26.90625 C 7.15625 -27.226562 7.347656 -27.390625 7.671875 -27.390625 L 12.421875 -27.390625 C 12.742188 -27.390625 12.941406 -27.226562 13.015625 -26.90625 L 18.6875 -0.578125 C 18.757812 -0.191406 18.601562 0 18.21875 0 Z M 12.21875 -9.453125 L 10.03125 -21.390625 L 7.84375 -9.453125 Z M 12.21875 -9.453125 "/></g></g><g transform="translate(44.016986, 34.205067)"><g><path d="M 12.21875 -27.390625 L 15.78125 -27.390625 C 16.144531 -27.390625 16.328125 -27.207031 16.328125 -26.84375 L 16.328125 -0.546875 C 16.328125 -0.179688 16.144531 0 15.78125 0 L 12.390625 0 C 12.066406 0 11.863281 -0.144531 11.78125 -0.4375 L 6.53125 -15.0625 L 6.375 -15.0625 L 6.375 -0.546875 C 6.375 -0.179688 6.1875 0 5.8125 0 L 2.265625 0 C 1.898438 0 1.71875 -0.179688 1.71875 -0.546875 L 1.71875 -26.84375 C 1.71875 -27.207031 1.898438 -27.390625 2.265625 -27.390625 L 5.65625 -27.390625 C 5.96875 -27.390625 6.171875 -27.238281 6.265625 -26.9375 L 11.46875 -12.390625 L 11.671875 -12.390625 L 11.671875 -26.84375 C 11.671875 -27.207031 11.851562 -27.390625 12.21875 -27.390625 Z M 12.21875 -27.390625 "/></g></g></g><g fill="#000000" fill-opacity="1"><g transform="translate(62.058091, 34.205067)"><g><path d="M 18.21875 0 L 14.578125 0 C 14.285156 0 14.101562 -0.160156 14.03125 -0.484375 L 13.078125 -5.484375 L 6.984375 -5.484375 L 6.0625 -0.484375 C 5.988281 -0.160156 5.804688 0 5.515625 0 L 1.84375 0 C 1.4375 0 1.289062 -0.191406 1.40625 -0.578125 L 7.09375 -26.90625 C 7.15625 -27.226562 7.347656 -27.390625 7.671875 -27.390625 L 12.421875 -27.390625 C 12.742188 -27.390625 12.941406 -27.226562 13.015625 -26.90625 L 18.6875 -0.578125 C 18.757812 -0.191406 18.601562 0 18.21875 0 Z M 12.21875 -9.453125 L 10.03125 -21.390625 L 7.84375 -9.453125 Z M 12.21875 -9.453125 "/></g></g></g><g fill="#000000" fill-opacity="1"><g transform="translate(82.118974, 34.205067)"><g><path d="M 1.71875 -4.9375 L 1.71875 -22.453125 C 1.71875 -24.078125 2.140625 -25.304688 2.984375 -26.140625 C 3.828125 -26.972656 5.046875 -27.390625 6.640625 -27.390625 L 11.15625 -27.390625 C 12.757812 -27.390625 13.984375 -26.972656 14.828125 -26.140625 C 15.671875 -25.304688 16.09375 -24.078125 16.09375 -22.453125 L 16.09375 -18.890625 C 16.09375 -18.523438 15.910156 -18.34375 15.546875 -18.34375 L 12.125 -18.34375 C 11.757812 -18.34375 11.578125 -18.523438 11.578125 -18.890625 L 11.578125 -21.5 C 11.578125 -22.414062 11.117188 -22.875 10.203125 -22.875 L 7.734375 -22.875 C 6.828125 -22.875 6.375 -22.414062 6.375 -21.5 L 6.375 -5.890625 C 6.375 -4.972656 6.828125 -4.515625 7.734375 -4.515625 L 10.203125 -4.515625 C 11.117188 -4.515625 11.578125 -4.972656 11.578125 -5.890625 L 11.578125 -10.46875 L 9.796875 -10.46875 C 9.429688 -10.46875 9.25 -10.65625 9.25 -11.03125 L 9.25 -14.453125 C 9.25 -14.816406 9.429688 -15 9.796875 -15 L 15.546875 -15 C 15.910156 -15 16.09375 -14.816406 16.09375 -14.453125 L 16.09375 -4.9375 C 16.09375 -3.332031 15.671875 -2.109375 14.828125 -1.265625 C 13.984375 -0.421875 12.757812 0 11.15625 0 L 6.640625 0 C 5.046875 0 3.828125 -0.421875 2.984375 -1.265625 C 2.140625 -2.109375 1.71875 -3.332031 1.71875 -4.9375 Z M 1.71875 -4.9375 "/></g></g></g><g fill="#000000" fill-opacity="1"><g transform="translate(99.920441, 34.205067)"><g><path d="M 15.375 -26.84375 L 15.375 -23.421875 C 15.375 -23.023438 15.191406 -22.828125 14.828125 -22.828125 L 6.265625 -22.828125 L 6.265625 -15.984375 L 12.796875 -15.984375 C 13.160156 -15.984375 13.34375 -15.789062 13.34375 -15.40625 L 13.34375 -12.015625 C 13.34375 -11.628906 13.160156 -11.4375 12.796875 -11.4375 L 6.265625 -11.4375 L 6.265625 -4.515625 L 14.828125 -4.515625 C 15.191406 -4.515625 15.375 -4.332031 15.375 -3.96875 L 15.375 -0.546875 C 15.375 -0.179688 15.191406 0 14.828125 0 L 2.21875 0 C 1.882812 0 1.71875 -0.179688 1.71875 -0.546875 L 1.71875 -26.84375 C 1.71875 -27.207031 1.882812 -27.390625 2.21875 -27.390625 L 14.828125 -27.390625 C 15.191406 -27.390625 15.375 -27.207031 15.375 -26.84375 Z M 15.375 -26.84375 "/></g></g></g><g fill="#000000" fill-opacity="1"><g transform="translate(117.003006, 34.205067)"><g><path d="M 15.78125 -22.453125 L 15.78125 -14.109375 C 15.78125 -11.828125 14.945312 -10.316406 13.28125 -9.578125 L 15.640625 -0.609375 C 15.753906 -0.203125 15.597656 0 15.171875 0 L 11.609375 0 C 11.285156 0 11.09375 -0.160156 11.03125 -0.484375 L 8.734375 -9.171875 L 6.375 -9.171875 L 6.375 -0.546875 C 6.375 -0.179688 6.1875 0 5.8125 0 L 2.265625 0 C 1.898438 0 1.71875 -0.179688 1.71875 -0.546875 L 1.71875 -26.84375 C 1.71875 -27.207031 1.898438 -27.390625 2.265625 -27.390625 L 10.859375 -27.390625 C 12.472656 -27.390625 13.695312 -26.972656 14.53125 -26.140625 C 15.363281 -25.304688 15.78125 -24.078125 15.78125 -22.453125 Z M 6.375 -13.6875 L 9.75 -13.6875 C 10.664062 -13.6875 11.125 -14.144531 11.125 -15.0625 L 11.125 -21.5 C 11.125 -22.414062 10.664062 -22.875 9.75 -22.875 L 6.375 -22.875 Z M 6.375 -13.6875 "/></g></g></g></g></g></g><g clip-path="url(#57f2af7de3)"><g clip-path="url(#68c178742f)"><g transform="matrix(1, 0, 0, 1, 5, 2)"><g clip-path="url(#ae8aaba669)"><g clip-path="url(#db989a01be)"><g clip-path="url(#2530300e04)"><path fill="#000000" d="M 0.347656 0.941406 L 39.585938 0.941406 L 39.585938 35.9375 L 0.347656 35.9375 Z M 0.347656 0.941406 " fill-opacity="1" fill-rule="nonzero"/></g></g></g></g></g></g><g clip-path="url(#2222a7fe0d)"><g transform="matrix(1, 0, 0, 1, 7, 0.000000000000004377)"><g clip-path="url(#6a834d84f7)"><g fill="#ffffff" fill-opacity="1"><g transform="translate(0.374283, 34.205067)"><g><path d="M 15.40625 -26.84375 L 15.40625 -23.421875 C 15.40625 -23.054688 15.222656 -22.875 14.859375 -22.875 L 6.375 -22.875 L 6.375 -15.984375 L 12.796875 -15.984375 C 13.160156 -15.984375 13.34375 -15.800781 13.34375 -15.4375 L 13.34375 -12.015625 C 13.34375 -11.648438 13.160156 -11.46875 12.796875 -11.46875 L 6.375 -11.46875 L 6.375 -0.546875 C 6.375 -0.179688 6.1875 0 5.8125 0 L 2.265625 0 C 1.898438 0 1.71875 -0.179688 1.71875 -0.546875 L 1.71875 -26.84375 C 1.71875 -27.207031 1.898438 -27.390625 2.265625 -27.390625 L 14.859375 -27.390625 C 15.222656 -27.390625 15.40625 -27.207031 15.40625 -26.84375 Z M 15.40625 -26.84375 "/></g></g><g transform="translate(17.491079, 34.205067)"><g><path d="M 11.53125 -13.96875 L 16.984375 -0.828125 C 17.097656 -0.597656 17.109375 -0.398438 17.015625 -0.234375 C 16.921875 -0.078125 16.738281 0 16.46875 0 L 12.9375 0 C 12.550781 0 12.289062 -0.160156 12.15625 -0.484375 L 8.859375 -8.765625 L 5.578125 -0.484375 C 5.441406 -0.160156 5.179688 0 4.796875 0 L 1.265625 0 C 0.992188 0 0.816406 -0.078125 0.734375 -0.234375 C 0.648438 -0.398438 0.65625 -0.597656 0.75 -0.828125 L 6.15625 -13.96875 L 0.953125 -26.5625 C 0.867188 -26.8125 0.863281 -27.007812 0.9375 -27.15625 C 1.019531 -27.3125 1.195312 -27.390625 1.46875 -27.390625 L 4.890625 -27.390625 C 5.285156 -27.390625 5.550781 -27.226562 5.6875 -26.90625 L 8.859375 -18.796875 L 12.046875 -26.90625 C 12.179688 -27.226562 12.445312 -27.390625 12.84375 -27.390625 L 16.265625 -27.390625 C 16.535156 -27.390625 16.71875 -27.3125 16.8125 -27.15625 C 16.90625 -27.007812 16.894531 -26.8125 16.78125 -26.5625 Z M 11.53125 -13.96875 "/></g></g></g></g></g></g></svg>